<svg viewBox="0 0 20 20" fill="none" xmlns="http://www.w3.org/2000/svg">
  <path
    d="M18.3334 18.3333L16.6667 16.6667M9.58341 17.5C10.623 17.5 11.6525 17.2952 12.613 16.8974C13.5735 16.4995 14.4462 15.9164 15.1813 15.1813C15.9165 14.4461 16.4996 13.5734 16.8975 12.6129C17.2953 11.6524 17.5001 10.623 17.5001 9.58333C17.5001 8.5437 17.2953 7.51425 16.8975 6.55375C16.4996 5.59326 15.9165 4.72053 15.1813 3.9854C14.4462 3.25027 13.5735 2.66713 12.613 2.26928C11.6525 1.87143 10.623 1.66666 9.58341 1.66666C7.48378 1.66666 5.47015 2.50074 3.98549 3.9854C2.50082 5.47006 1.66675 7.4837 1.66675 9.58333C1.66675 11.683 2.50082 13.6966 3.98549 15.1813C5.47015 16.6659 7.48378 17.5 9.58341 17.5Z"
    stroke="#7C7C7C" stroke-width="1.5" stroke-linecap="round" stroke-linejoin="round" />
</svg>